<svg width="32" height="32" viewBox="0 0 100 100" xmlns="http://www.w3.org/2000/svg">
  <defs>
    <linearGradient id="brainFogGradient" x1="0%" y1="0%" x2="100%" y2="100%">
      <stop offset="0%" stop-color="#90caf9" />
      <stop offset="100%" stop-color="#f48fb1" />
    </linearGradient>
  </defs>
  <path fill="url(#brainFogGradient)" d="M63.3,21.3c-2.4-1.6-5.2-2.6-8.3-2.6c-7.8,0-14.2,6.4-14.2,14.2c0,1.3,0.2,2.6,0.5,3.8c-1.2-0.3-2.4-0.5-3.8-0.5 c-9.4,0-17,7.6-17,17s7.6,17,17,17c2.5,0,4.9-0.6,7-1.5c3.1,5.3,8.8,8.8,15.3,8.8c9.9,0,17.9-8,17.9-17.9 C78.1,49.2,71.8,32.3,63.3,21.3z" />
</svg>